# AST/ASF file generated using VICON BodyLanguage
# -----------------------------------------------
:version 1.10
:name VICON
:units
  mass 1.0
  length 0.45
  angle deg
:documentation
   .ast/.asf automatically generated from VICON data using
   VICON BodyBuilder and BodyLanguage model FoxedUp or BRILLIANT.MOD
:root
   order TX TY TZ RX RY RZ
   axis XYZ
   position 0 0 0  
   orientation 0 0 0 
:bonedata
  begin
     id 1 
     name lhipjoint
     direction 0.61886 -0.69539 0.365302 
     length 2.20474 
     axis 0 0 0  XYZ
  end
  begin
     id 2 
     name lfemur
     direction 0.34202 -0.939693 0  
     length 6.65149  
     axis 0 0 20  XYZ
    dof rx ry rz
    limits (-160.0 20.0)
           (-70.0 70.0)
           (-60.0 70.0)
  end
  begin
     id 3 
     name ltibia
     direction 0.34202 -0.939693 0   
     length 6.35814   
     axis 0 0 20   XYZ
    dof rx
    limits (-10.0 170.0)
  end
  begin
     id 4 
     name lfoot
     direction 0.101224 -0.278109 0.955201   
     length 2.18766   
     axis -90 7.62852e-016 20   XYZ
    dof rx rz
    limits (-45.0 90.0)
           (-70.0 20.0)
  end
  begin
     id 5 
     name ltoes
     direction 1.53524e-011 -4.21877e-011 1   
     length 1.09206   
     axis -90 7.62852e-016 20   XYZ
    dof rx
    limits (-90.0 20.0)
  end
  begin
     id 6 
     name rhipjoint
     direction -0.600207 -0.708087 0.371972   
     length 2.1652  
     axis 0 0 0  XYZ 
  end
  begin
     id 7 
     name rfemur
     direction -0.34202 -0.939693 0   
     length 6.54691   
     axis 0 0 -20   XYZ
    dof rx ry rz
    limits (-160.0 20.0)
           (-70.0 70.0)
           (-70.0 60.0)
  end
  begin
     id 8 
     name rtibia
     direction -0.34202 -0.939693 0   
     length 6.37474   
     axis 0 0 -20   XYZ
    dof rx
    limits (-10.0 170.0)
 end
 begin
     id 9 
     name rfoot
     direction -0.111266 -0.3057 0.945604   
     length 2.00903  
     axis -90 -7.62852e-016 -20   XYZ
    dof rx rz
    limits (-45.0 90.0)
           (-20.0 70.0)
  end
  begin
     id 10 
     name rtoes
     direction -1.5362e-011 -4.21913e-011 1   
     length 1.00221   
     axis -90 -7.62852e-016 -20   XYZ
    dof rx
    limits (-90.0 20.0)
  end
  begin
     id 11 
     name lowerback
     direction -0.0224561 0.999731 -0.00577314   
     length 2.10409   
     axis 0 0 0   XYZ
    dof rx ry rz
    limits (-20.0 45.0)
           (-30.0 30.0)
           (-30.0 30.0)
  end
  begin
     id 12 
     name upperback
     direction 0.0213126 0.999185 -0.0342817   
     length 2.09783   
     axis 0 0 0   XYZ
    dof rx ry rz
    limits (-20.0 45.0)
           (-30.0 30.0)
           (-30.0 30.0)
  end
  begin
     id 13 
     name thorax
     direction 0.0312356 0.999036 -0.0308451   
     length 2.09788   
     axis 0 0 0   XYZ
    dof rx ry rz
    limits (-20.0 45.0)
           (-30.0 30.0)
           (-30.0 30.0)
  end
  begin
     id 14 
     name lowerneck
     direction -0.0114419 0.996481 0.0830329   
     length 1.38575   
     axis 0 0 0   XYZ
    dof rx ry rz
    limits (-20.0 45.0)
           (-30.0 30.0)
           (-30.0 30.0)
  end
  begin
     id 15 
     name upperneck
     direction -0.0075675 0.996187 -0.0869092   
     length 1.39401   
     axis 0 0 0   XYZ
    dof rx ry rz
    limits (-20.0 45.0)
           (-30.0 30.0)
           (-30.0 30.0)
  end
  begin
     id 16
     name head
     direction -0.00222073 0.999264 -0.0382974  
     length 1.3964  
     axis 0 0 0   XYZ
    dof rx ry rz
    limits (-20.0 45.0)
           (-30.0 30.0)
           (-30.0 30.0)
  end
  begin
     id 17 
     name lclavicle
     direction 0.965962 0.222138 0.132556  
     length 2.81514  
     axis 0 0 0   XYZ
    dof ry rz
    limits (-20.0 10.0)
           (0.0 20.0)
  end
  begin
     id 18 
     name lhumerus
     direction 1 -4.48972e-011 7.03471e-018   
     length 4.47366   
     axis 180 -30 -90   XYZ
    dof rx ry rz
    limits (-60.0 90.0)
           (-90.0 90.0)
           (-90.0 90.0)
  end
  begin
     id 19
     name lradius
     direction 1 -4.48951e-011 -6.22192e-028   
     length 3.19948   
     axis 180 -30 -90   XYZ
    dof rx
    limits (-10.0 170.0)
  end
  begin
     id 20
     name lwrist
     direction 1 -4.48967e-011 -1.24264e-027   
     length 1.59974   
     axis 1.40095e-015 90 90   XYZ
    dof ry
    limits (-180.0 0.0)
 end
  begin
     id 21 
     name lhand
     direction 1 -4.4897e-011 -2.48528e-027   
     length 0.492667   
     axis 1.58582e-015 90 90   XYZ
    dof rx rz
    limits (-90.0 90.0)
           (-45.0 45.0)
  end
  begin
     id 22 
     name lfingers
     direction 1 -4.48996e-011 -4.97056e-027   
     length 0.397201   
     axis 3.17164e-015 90 90   XYZ
    dof rx
    limits (0.0 90.0)
  end
  begin
     id 23
     name lthumb
     direction 0.707107 -6.34981e-011 0.707107   
     length 0.570303   
     axis -90 45 2.85299e-015   XYZ
    dof rx rz
    limits (-45.0 45.0)
           (-45.0 45.0)
  end
  begin
     id 24 
     name rclavicle
     direction -0.961164 0.229034 0.153972   
     length 3.09348  
     axis 0 0 0   XYZ 
    dof ry rz
    limits (-10.0 20.0)
           (-20.0 0.0)
  end
  begin
     id 25 
     name rhumerus
     direction -1 -4.48971e-011 -9.06263e-028  
     length 4.3269   
     axis 180 30 90   XYZ
    dof rx ry rz
    limits (-90.0 60.0)
           (-90.0 90.0)
           (-90.0 90.0)
  end
  begin
     id 26 
     name rradius
     direction -1 -4.48953e-011 1.44659e-027   
     length 3.1896   
     axis 180 30 90   XYZ
    dof rx
    limits (-10.0 170.0)
  end
  begin
     id 27 
     name rwrist
     direction -1 -4.48988e-011 -1.24264e-027   
     length 1.5948   
     axis 1.40095e-015 -90 -90   XYZ
    dof ry
    limits (-180.0 0.0)
  end
  begin
     id 28
     name rhand
     direction -1 -4.49033e-011 -2.48528e-027   
     length 0.464496   
     axis 1.58582e-015 -90 -90   XYZ
    dof rx rz
    limits (-90.0 90.0)
           (-45.0 45.0)
  end
  begin
     id 29
     name rfingers
     direction -1 -4.48905e-011 -4.97056e-027   
     length 0.374489   
     axis 3.17164e-015 -90 -90   XYZ
    dof rx
    limits (0.0 90.0)
  end
  begin
     id 30
     name rthumb
     direction -0.707107 -6.34909e-011 0.707107   
     length 0.537693   
     axis -90 -45 -2.85299e-015   XYZ
    dof rx rz
    limits (-45.0 45.0)
           (-45.0 45.0)
  end
:hierarchy
  begin
    root lhipjoint rhipjoint lowerback
    lhipjoint lfemur
    lfemur ltibia
    ltibia lfoot
    lfoot ltoes
    rhipjoint rfemur
    rfemur rtibia
    rtibia rfoot
    rfoot rtoes
    lowerback upperback
    upperback thorax
    thorax lowerneck lclavicle rclavicle
    lowerneck upperneck
    upperneck head
    lclavicle lhumerus
    lhumerus lradius
    lradius lwrist
    lwrist lhand lthumb
    lhand lfingers
    rclavicle rhumerus
    rhumerus rradius
    rradius rwrist
    rwrist rhand rthumb
    rhand rfingers
  end

#!OML:ASF G:\acrobat\cartwheel_test 2\Patient 1\Session 2\acrobat4.ASF
:FULLY-SPECIFIED
:DEGREES
33
root 10.0078 15.1543 18.7314 -165.231 -17.2915 -182.842
lowerback 1.59225 1.50558 -1.94528
upperback 4.50329 1.76028 2.06026
thorax 3.61991 0.685134 3.23722
lowerneck -2.06068 -4.56153 -0.992133
upperneck 12.1865 -6.82008 2.22444
head 4.51638 -3.46829 0.595304
rclavicle 8.26944e-014 -3.18055e-015
rhumerus -14.0792 47.2065 -42.7679
rradius 83.8652
rwrist 12.8455
rhand -11.0889 -28.391
rfingers 7.12502
rthumb 14.9349 -57.8326
lclavicle 8.26944e-014 -3.18055e-015
lhumerus 10.3307 -41.6556 -6.62068
lradius 97.3766
lwrist 13.8021
lhand 1.89834 1.83075
lfingers 7.12502
lthumb 27.4074 29.8574
rfemur -46.3563 5.59952 13.2223
rtibia 42.2687
rfoot -26.1044 -18.6231
rtoes -17.0182
lfemur -12.3086 0.302239 -28.8564
ltibia 31.3084
lfoot -30.645 20.3161
ltoes -15.0453
34
root 10.0108 15.1586 18.673 -164.681 -17.4683 -183.063
lowerback 2.24789 1.58846 -1.67595
upperback 4.56613 1.83846 2.20806
thorax 3.31327 0.726165 3.22166
lowerneck -1.46883 -4.80131 -0.658878
upperneck 11.4947 -7.08568 1.98293
head 4.12744 -3.59667 0.473346
rclavicle 1.98785e-015 8.74653e-015
rhumerus -10.1752 50.1295 -36.1901
rradius 83.4161
rwrist 12.7494
rhand -12.3224 -28.1891
rfingers 7.12502
rthumb 13.7463 -57.715
lclavicle 1.98785e-015 8.74653e-015
lhumerus 13.1155 -35.254 -9.91638
lradius 92.4057
lwrist 15.7938
lhand 4.42598 0.627996
lfingers 7.12502
lthumb 29.8223 28.2473
rfemur -46.7753 5.22492 13.2485
rtibia 42.5606
rfoot -26.1543 -19.0745
rtoes -17.6868
lfemur -12.4531 0.109361 -28.9373
ltibia 30.9752
lfoot -30.7272 20.1374
ltoes -15.0884
35
root 10.0177 15.1552 18.6131 -164.039 -17.7979 -183.478
lowerback 2.89376 1.42808 -1.67749
upperback 4.80695 1.56818 2.53244
thorax 3.21069 0.566562 3.54608
lowerneck -1.32471 -4.86478 -0.814609
upperneck 10.7678 -7.06687 1.7415
head 3.83446 -3.5927 0.438216
rclavicle -1.27222e-014 -1.11319e-014
rhumerus -4.68949 52.4055 -28.5319
rradius 82.7432
rwrist 12.6269
rhand -12.9444 -28.2086
rfingers 7.12502
rthumb 13.1468 -57.7741
lclavicle -1.27222e-014 -1.11319e-014
lhumerus 14.3528 -28.0919 -11.0044
lradius 86.1677
lwrist 18.3745
lhand 2.76198 1.26223
lfingers 7.12502
lthumb 28.2331 29.1553
rfemur -47.1313 5.30401 12.6905
rtibia 42.8095
rfoot -26.249 -20.0291
rtoes -17.5858
lfemur -12.6598 0.068647 -29.1305
ltibia 30.697
lfoot -30.7884 19.5969
ltoes -14.9701
36
root 10.0258 15.1495 18.5475 -163.256 -18.0489 -183.926
lowerback 3.28777 1.55679 -1.33052
upperback 5.03079 1.71449 2.47311
thorax 3.2222 0.639579 3.2819
lowerneck -1.02421 -5.14641 -0.248396
upperneck 10.0062 -7.39677 1.62391
head 3.48348 -3.73237 0.31478
rclavicle 1.59028e-014 -4.77083e-015
rhumerus -1.0677 53.3655 -22.9316
rradius 81.8611
rwrist 12.5225
rhand -12.5252 -28.7944
rfingers 7.12502
rthumb 13.5509 -58.3334
lclavicle 1.59028e-014 -4.77083e-015
lhumerus 16.687 -20.0297 -11.3459
lradius 78.8305
lwrist 20.2098
lhand -3.85825 1.23738
lfingers 7.12502
lthumb 21.8901 30.0191
rfemur -47.651 5.17627 12.1612
rtibia 43.0334
rfoot -26.2166 -20.7907
rtoes -17.0707
lfemur -13.0225 0.330081 -29.3563
ltibia 30.4706
lfoot -30.8803 18.8479
ltoes -14.9533
37
root 10.0347 15.152 18.4817 -162.422 -18.3817 -184.201
lowerback 3.43745 1.56218 -0.946765
upperback 5.478 1.6596 2.68214
thorax 3.61319 0.589748 3.28717
lowerneck -1.39868 -5.2687 -0.120227
upperneck 9.47259 -7.48067 1.37738
head 3.35216 -3.76137 0.209806
rclavicle 2.46493e-014 9.54166e-015
rhumerus 3.5196 53.6646 -16.7582
rradius 80.7254
rwrist 11.9945
rhand -12.4884 -29.0059
rfingers 7.12502
rthumb 13.5863 -58.5426
lclavicle 2.46493e-014 9.54166e-015
lhumerus 18.6624 -11.2314 -9.70976
lradius 70.5348
lwrist 19.1428
lhand -14.641 1.23546
lfingers 7.12502
lthumb 11.5109 30.8994
rfemur -48.3148 4.54667 12.1092
rtibia 43.2747
rfoot -26.0808 -21.3627
rtoes -17.0922
lfemur -13.5404 0.661001 -29.3752
ltibia 30.237
lfoot -30.8024 18.0467
ltoes -14.9779
38
root 10.0462 15.1562 18.4157 -161.675 -18.9177 -184.465
lowerback 4.01432 1.47682 -0.438146
upperback 5.76618 1.48959 2.91763
thorax 3.60879 0.49454 3.23748
lowerneck -1.67817 -5.34529 -0.0572414
upperneck 9.09598 -7.52751 1.17409
head 3.26252 -3.77859 0.131277
rclavicle 3.10104e-014 1.90833e-014
rhumerus 7.65824 53.6765 -11.4003
rradius 79.3051
rwrist 11.4628
rhand -13.1962 -28.507
rfingers 7.12502
rthumb 12.904 -58.0881
lclavicle 3.10104e-014 1.90833e-014
lhumerus 21.4972 -1.67883 -6.59664
lradius 61.5486
lwrist 16.0652
lhand -22.1719 1.1002
lfingers 7.12502
lthumb 4.2428 31.0377
rfemur -48.8472 3.82305 12.1318
rtibia 43.5435
rfoot -25.8705 -22.0448
rtoes -17.3646
lfemur -13.9711 0.911292 -29.3033
ltibia 30.0124
lfoot -30.6438 17.1652
ltoes -15.099
39
root 10.059 15.1553 18.3434 -160.954 -19.5927 -184.93
lowerback 4.92368 1.222 -0.164107
upperback 5.95868 1.09767 3.21665
thorax 3.32509 0.280538 3.38487
lowerneck -1.87256 -5.32584 -0.24622
upperneck 8.7574 -7.45455 1.10234
head 3.18651 -3.74317 0.143022
rclavicle -1.35174e-014 -4.92986e-014
rhumerus 11.9724 53.4014 -6.3473
rradius 77.5563
rwrist 10.9449
rhand -14.324 -28.2595
rfingers 7.12502
rthumb 11.8167 -57.9061
lclavicle -1.35174e-014 -4.92986e-014
lhumerus 25.0914 7.9014 -2.33496
lradius 52.8448
lwrist 15.4207
lhand -31.0045 2.08452
lfingers 7.12502
lthumb -4.28744 32.0211
rfemur -49.2326 2.96774 12.0184
rtibia 43.8825
rfoot -25.5657 -22.7807
rtoes -17.1589
lfemur -14.2257 1.31059 -29.3674
ltibia 29.7558
lfoot -30.4336 16.0822
ltoes -15.6289
40
root 10.0755 15.1508 18.2736 -160.046 -19.912 -185.184
lowerback 5.68745 0.990627 -0.0528521
upperback 6.14524 0.724528 3.67709
thorax 3.11529 0.0612174 3.8034
lowerneck -2.2238 -5.20777 -0.657081
upperneck 8.40551 -7.23602 1.04516
head 3.14443 -3.63969 0.196918
rclavicle 2.14687e-014 -3.18055e-015
rhumerus 16.5316 52.5926 -1.5762
rradius 75.4029
rwrist 10.5115
rhand -15.4793 -28.765
rfingers 7.12502
rthumb 10.7025 -58.4724
lclavicle 2.14687e-014 -3.18055e-015
lhumerus 29.6873 18.5335 3.8218
lradius 45.3993
lwrist 20.515
lhand -40.0453 4.97145
lfingers 7.12502
lthumb -13.0115 34.5457
rfemur -50.0499 2.00694 12.2672
rtibia 44.2519
rfoot -25.0832 -22.8962
rtoes -16.9666
lfemur -14.8074 1.89455 -29.3368
ltibia 29.4958
lfoot -30.2362 15.1014
ltoes -16.1076
41
root 10.0965 15.1499 18.1861 -159.097 -20.3565 -185.519
lowerback 6.35308 0.60137 -0.29633
upperback 6.39497 0.104756 4.30725
thorax 3.05255 -0.309803 4.62113
lowerneck -2.72492 -4.9338 -1.33217
upperneck 8.11686 -6.79331 0.980695
head 3.15976 -3.43261 0.296351
rclavicle 3.49861e-014 -1.59028e-014
rhumerus 21.4781 51.2772 2.98181
rradius 72.7686
rwrist 10.2253
rhand -16.1776 -28.889
rfingers 7.12502
rthumb 10.0288 -58.63
lclavicle 3.49861e-014 -1.59028e-014
lhumerus 35.4207 29.8213 12.2835
lradius 40.4343
lwrist 29.7915
lhand -46.9466 4.85116
lfingers 7.12502
lthumb -19.6559 33.8774
rfemur -50.8294 1.20791 12.4478
rtibia 44.6787
rfoot -24.8463 -23.071
rtoes -16.913
lfemur -15.3327 2.59948 -29.2634
ltibia 29.2127
lfoot -30.0095 13.7948
ltoes -16.0228
42
root 10.1132 15.1435 18.0927 -157.962 -20.2674 -185.876
lowerback 6.91122 0.268817 -0.909585
upperback 6.62877 -0.464361 4.98468
thorax 3.05519 -0.676103 5.71308
lowerneck -3.25226 -4.56559 -2.19891
upperneck 7.7758 -6.19951 0.808654
head 3.16068 -3.16056 0.402372
rclavicle 4.92986e-014 6.36111e-014
rhumerus 26.7684 49.4359 7.35523
rradius 69.7723
rwrist 9.98292
rhand -16.4817 -29.1097
rfingers 7.12502
rthumb 9.73542 -58.8646
lclavicle 4.92986e-014 6.36111e-014
lhumerus 44.2167 40.7302 24.0046
lradius 37.8078
lwrist 39.7119
lhand -53.6663 5.04205
lfingers 7.12502
lthumb -26.1039 33.268
rfemur -51.9455 0.51197 12.6026
rtibia 45.0977
rfoot -24.5996 -22.9358
rtoes -16.9208
lfemur -16.016 2.91866 -29.43
ltibia 28.968
lfoot -29.8487 13.2746
ltoes -15.9802
43
root 10.126 15.1377 17.9932 -156.946 -20.1084 -186.18
lowerback 7.57842 -0.0779347 -1.62256
upperback 6.98306 -1.10857 5.77373
thorax 3.1724 -1.11204 7.00632
lowerneck -3.963 -4.17368 -3.33317
upperneck 7.38263 -5.54663 0.683567
head 3.18557 -2.86341 0.571681
rclavicle -3.02153e-014 -1.27222e-014
rhumerus 32.0468 46.9879 11.3529
rradius 66.5624
rwrist 9.76607
rhand -15.9533 -30.2568
rfingers 7.12502
rthumb 10.2452 -59.9873
lclavicle -3.02153e-014 -1.27222e-014
lhumerus 55.2283 49.4068 38.0316
lradius 38.2042
lwrist 49.9326
lhand -57.9914 9.88351
lfingers 7.12502
lthumb -30.2376 37.4275
rfemur -52.8882 -0.281748 12.8993
rtibia 45.511
rfoot -24.3283 -22.5973
rtoes -16.4865
lfemur -16.5173 2.77679 -29.5482
ltibia 28.707
lfoot -29.9037 13.1009
ltoes -16.3772
44
root 10.1377 15.1354 17.8857 -155.781 -19.6416 -186.399
lowerback 7.92999 -0.279139 -2.44262
upperback 7.43407 -1.59901 6.55463
thorax 3.58879 -1.50102 8.36334
lowerneck -4.93112 -3.90045 -4.6787
upperneck 7.0071 -5.02592 0.741707
head 3.27814 -2.62927 0.831583
rclavicle -5.56597e-014 -1.59028e-015
rhumerus 36.5229 44.1004 14.2
rradius 63.069
rwrist 9.78264
rhand -14.5787 -30.9599
rfingers 7.12502
rthumb 11.5711 -60.6205
lclavicle -5.56597e-014 -1.59028e-015
lhumerus 67.4739 54.5015 51.5771
lradius 38.4296
lwrist 56.9903
lhand -60.4634 11.8279
lfingers 7.12502
lthumb -32.5929 38.9131
rfemur -54.0452 -0.968861 13.2931
rtibia 45.8784
rfoot -24.0565 -21.9884
rtoes -15.9534
lfemur -17.2049 2.52662 -29.6945
ltibia 28.49
lfoot -30.0453 13.3508
ltoes -16.9747
45
root 10.1519 15.1291 17.7732 -154.533 -18.7235 -186.597
lowerback 8.28602 -0.230395 -3.30212
upperback 7.85155 -1.7464 7.16176
thorax 3.92921 -1.71708 9.55927
lowerneck -5.801 -3.79893 -5.93219
upperneck 6.49056 -4.73374 0.842058
head 3.30476 -2.50244 1.08758
rclavicle 4.77083e-014 -7.15625e-014
rhumerus 39.8116 41.1768 15.4355
rradius 59.2801
rwrist 10.2147
rhand -16.8358 -32.0076
rfingers 7.12502
rthumb 9.39374 -61.7783
lclavicle 4.77083e-014 -7.15625e-014
lhumerus 72.2535 57.3286 56.1286
lradius 39.4085
lwrist 63.2195
lhand -59.6105 12.5754
lfingers 7.12502
lthumb -31.7809 39.825
rfemur -55.3615 -1.27081 13.5501
rtibia 46.1763
rfoot -23.9261 -21.2445
rtoes -16.0105
lfemur -18.0152 2.82268 -30.0288
ltibia 28.326
lfoot -30.0473 13.6449
ltoes -17.9772
46
root 10.1617 15.1227 17.6619 -153.501 -18.0425 -186.802
lowerback 9.09795 -0.127765 -3.73058
upperback 8.21687 -1.80728 7.66667
thorax 3.9321 -1.86016 10.4105
lowerneck -6.29312 -3.65671 -7.13398
upperneck 5.73949 -4.41484 1.04232
head 3.17521 -2.35217 1.38011
rclavicle -1.43125e-014 1.43125e-014
rhumerus 42.2772 38.3767 15.6448
rradius 55.4361
rwrist 10.8433
rhand -17.884 -32.7358
rfingers 7.12502
rthumb 8.38233 -62.5495
lclavicle -1.43125e-014 1.43125e-014
lhumerus 69.9104 59.2106 52.5115
lradius 40.3162
lwrist 67.1747
lhand -52.7668 17.827
lfingers 7.12502
lthumb -25.2424 46.1773
rfemur -56.3517 -1.89663 13.9699
rtibia 46.395
rfoot -23.8727 -20.308
rtoes -16.5406
lfemur -18.5849 2.83339 -30.2294
ltibia 28.226
lfoot -30.0839 13.6811
ltoes -18.4751
